<?xml version="1.0" encoding="utf-8" standalone="yes"?>
<svg xmlns="http://www.w3.org/2000/svg" version="1.1" baseProfile="tiny" width="634.5" height="580.5" viewBox="-0.75 -0.75 23.5 21.5" fill="none" stroke="#000000" stroke-linejoin="round" stroke-linecap="round" stroke-width="0.5">
    <title>12605. baby_carriage,buggy,pram,pushchair,stroller</title>
    <desc>https://www.xelify.se/blissdictionary</desc>
    <rect x="-0.75" y="-0.75" width="100%" height="100%" stroke="none" fill="#f5eb82"/>
    <path d="M0,8L4,12M4,12H12M4,14a2,2 0 1,1 4,0a2,2 0 1,1 -4,0M4.585786,15.414214L7.414213999999999,12.585786M4.585786,12.585786L7.414213999999999,15.414214M8,14a2,2 0 1,1 4,0a2,2 0 1,1 -4,0M8.585786,15.414214L11.414214,12.585786M8.585786,12.585786L11.414214,15.414214"></path><path d="M14,14a2,2 0 1,1 4,0a2,2 0 1,1 -4,0M18,12V16M18,14H22M22,12V16"></path>
</svg>