<?xml version="1.0" encoding="utf-8" standalone="yes"?>
<svg xmlns="http://www.w3.org/2000/svg" version="1.1" baseProfile="tiny" width="904.5" height="580.5" viewBox="-0.75 -0.75 33.5 21.5" fill="none" stroke="#000000" stroke-linejoin="round" stroke-linecap="round" stroke-width="0.5">
    <title>21112. bar_mitzvah_(Hebrew)</title>
    <desc>https://www.xelify.se/blissdictionary</desc>
    <rect x="-0.75" y="-0.75" width="100%" height="100%" stroke="none" fill="#f5eb82"/>
    <path d="M0,12a2,2 0 1,1 4,0a2,2 0 1,1 -4,0M2,10V14M0,16H4"></path><path d="M6,12a4,4 0 1,1 8,0M6,16L10,12M10,12L14,16M6,16H14"></path><path d="M16,10a2,2 0 1,1 4,0a2,2 0 1,1 4,0q0,3 -4,6q-4,-3 -4,-6M16,12L20,4M20,4L24,12M16,12H18M22,12H24M16,16L20,8M20,8L24,16M16,16H24"></path><path d="M26,10L28,12M26,14L28,12"></path><path d="M30,8V12M28,16L30,12M30,12L32,16"></path>
</svg>