<?xml version="1.0" encoding="utf-8" standalone="yes"?>
<svg xmlns="http://www.w3.org/2000/svg" version="1.1" baseProfile="tiny" width="796.5" height="580.5" viewBox="-0.75 -0.75 29.5 21.5" fill="none" stroke="#000000" stroke-linejoin="round" stroke-linecap="round" stroke-width="0.5">
    <title>25659. bird_nest,birdnest</title>
    <desc>https://www.xelify.se/blissdictionary</desc>
    <rect x="-0.75" y="-0.75" width="100%" height="100%" stroke="none" fill="#f5eb82"/>
    <path d="M0,12a4,4 0 1,0 8,0"></path><path d="M10,8a4,4 0 0,1 4,4M14,12a4,4 0 0,1 4,-4M13,14L14,12M14,12L15,14"></path><path d="M20,12a4,4 0 1,1 8,0a4,4 0 1,1 -8,0M22,12a2.5,2.5 0 0,1 4,0M22,12a2.5,2.5 0 0,0 4,0"></path>
</svg>