<?xml version="1.0" encoding="utf-8" standalone="yes"?>
<svg xmlns="http://www.w3.org/2000/svg" version="1.1" baseProfile="tiny" width="688.5" height="580.5" viewBox="-0.75 -0.75 25.5 21.5" fill="none" stroke="#000000" stroke-linejoin="round" stroke-linecap="round" stroke-width="0.5">
    <title>23429. car_mechanic</title>
    <desc>https://www.xelify.se/blissdictionary</desc>
    <rect x="-0.75" y="-0.75" width="100%" height="100%" stroke="none" fill="#cee9f6"/>
    <path d="M0,16H4M2,8V16"></path><path d="M6,12a4,4 0 1,1 8,0a4,4 0 1,1 -8,0M8,14a2,2 0 1,1 4,0a2,2 0 1,1 -4,0M8.585786,15.414214L11.414214,12.585786M8.585786,12.585786L11.414214,15.414214"></path><path d="M16,12H24M16,14a2,2 0 1,1 4,0a2,2 0 1,1 -4,0M16.585786,15.414214L19.414214,12.585786M16.585786,12.585786L19.414214,15.414214M20,14a2,2 0 1,1 4,0a2,2 0 1,1 -4,0M20.585786,15.414214L23.414214,12.585786M20.585786,12.585786L23.414214,15.414214M21,11L23,9M22,10L24,12"></path>
</svg>