<?xml version="1.0" encoding="utf-8" standalone="yes"?>
<svg xmlns="http://www.w3.org/2000/svg" version="1.1" baseProfile="tiny" width="526.5" height="580.5" viewBox="-0.75 -0.75 19.5 21.5" fill="none" stroke="#000000" stroke-linejoin="round" stroke-linecap="round" stroke-width="0.5">
    <title>27020. car_light(s)</title>
    <desc>https://www.xelify.se/blissdictionary</desc>
    <rect x="-0.75" y="-0.75" width="100%" height="100%" stroke="none" fill="#f5eb82"/>
    <path d="M0,12a4,4 0 1,1 8,0a4,4 0 1,1 -8,0M2,12a2,2 0 1,1 4,0a2,2 0 1,1 -4,0"></path><path stroke-width="0.4166" d="M3.7917,12a0.2083,0.2083 0 1,1 0.4166,0a0.2083,0.2083 0 1,1 -0.4166,0"></path><path d=""></path><path d="M3,4H5M3,6H5M3,4V6M5,4V6"></path><path d="M10,12H18M10,14a2,2 0 1,1 4,0a2,2 0 1,1 -4,0M10.585786,15.414214L13.414214,12.585786M10.585786,12.585786L13.414214,15.414214M14,14a2,2 0 1,1 4,0a2,2 0 1,1 -4,0M14.585786,15.414214L17.414214,12.585786M14.585786,12.585786L17.414214,15.414214M15,11L17,9M16,10L18,12"></path>
</svg>