<?xml version="1.0" encoding="utf-8" standalone="yes"?>
<svg xmlns="http://www.w3.org/2000/svg" version="1.1" baseProfile="tiny" width="769.5" height="580.5" viewBox="-0.75 -0.75 28.5 21.5" fill="none" stroke="#000000" stroke-linejoin="round" stroke-linecap="round" stroke-width="0.5">
    <title>23851. contrabassoon,double_bassoon_(2)</title>
    <desc>https://www.xelify.se/blissdictionary</desc>
    <rect x="-0.75" y="-0.75" width="100%" height="100%" stroke="none" fill="#f5eb82"/>
    <path d="M0,10H4M0,14H4M0,10V14M4,10V14M6,8V14M2,14a2,2 0 1,1 4,0a2,2 0 1,1 -4,0"></path><path d="M8,13a1,1 0 1,1 2,0M8,16L10,13M8,16H10"></path><path d="M12,16a4,4 0 0,1 4,-4M16,12H18M14,16a4,4 0 0,1 4,-4M12,16H14"></path><path d="M20,8H24M20,10H24M20,12H24M20,14H24M20,16H24M25,16L27,14M25,16L27,18"></path>
</svg>