<?xml version="1.0" encoding="utf-8" standalone="yes"?>
<svg xmlns="http://www.w3.org/2000/svg" version="1.1" baseProfile="tiny" width="850.5" height="580.5" viewBox="-0.75 -0.75 31.5 21.5" fill="none" stroke="#000000" stroke-linejoin="round" stroke-linecap="round" stroke-width="0.5">
    <title>21877. dogsled_sport,dogsled_racing</title>
    <desc>https://www.xelify.se/blissdictionary</desc>
    <rect x="-0.75" y="-0.75" width="100%" height="100%" stroke="none" fill="#f5eb82"/>
    <path d="M0,8V12M0,12H4M4,8V16M0,16L2,12M2,12L4,16"></path><path d="M6,16H14M14,16a4,4 0 0,0 4,-4M6,12V16M6,12H10M10,12V16"></path><path d="M22,8a2,2 0 1,0 0,4M22,12H30M22,16L24,12M24,12L26,16M26,16L28,12M28,12L30,16"></path>
</svg>