<?xml version="1.0" encoding="utf-8" standalone="yes"?>
<svg xmlns="http://www.w3.org/2000/svg" version="1.1" baseProfile="tiny" width="742.5" height="580.5" viewBox="-0.75 -0.75 27.5 21.5" fill="none" stroke="#000000" stroke-linejoin="round" stroke-linecap="round" stroke-width="0.5">
    <title>21830. Formula_One,NASCAR_Kart</title>
    <desc>https://www.xelify.se/blissdictionary</desc>
    <rect x="-0.75" y="-0.75" width="100%" height="100%" stroke="none" fill="#f5eb82"/>
    <path d="M0,8V12M0,12H4M4,8V16M0,16L2,12M2,12L4,16"></path><path d="M6,12H14M6,14a2,2 0 1,1 4,0a2,2 0 1,1 -4,0M6.585786,15.414214L9.414214,12.585786M6.585786,12.585786L9.414214,15.414214M10,14a2,2 0 1,1 4,0a2,2 0 1,1 -4,0M10.585786,15.414214L13.414214,12.585786M10.585786,12.585786L13.414214,15.414214M11,11L13,9M12,10L14,12"></path><path d="M16,12H24M22,10L24,12M22,14L24,12"></path><path d="M26,10V13"></path><path stroke-width="0.4166" d="M25.7917,14a0.2083,0.2083 0 1,1 0.4166,0a0.2083,0.2083 0 1,1 -0.4166,0"></path><path d=""></path>
</svg>