<?xml version="1.0" encoding="utf-8" standalone="yes"?>
<svg xmlns="http://www.w3.org/2000/svg" version="1.1" baseProfile="tiny" width="526.5" height="580.5" viewBox="-0.75 -0.75 19.5 21.5" fill="none" stroke="#000000" stroke-linejoin="round" stroke-linecap="round" stroke-width="0.5">
    <title>24126. fundamentalism_(religious)</title>
    <desc>https://www.xelify.se/blissdictionary</desc>
    <rect x="-0.75" y="-0.75" width="100%" height="100%" stroke="none" fill="#f5eb82"/>
    <path d="M0,10a2,2 0 1,1 4,0a2,2 0 1,1 4,0q0,3 -4,6q-4,-3 -4,-6M0,12L4,4M4,4L8,12M0,12H2M6,12H8M0,16L4,8M4,8L8,16M0,16H8"></path><path d="M10,12V16M10,16H18M18,12V16"></path>
</svg>