<?xml version="1.0" encoding="utf-8" standalone="yes"?>
<svg xmlns="http://www.w3.org/2000/svg" version="1.1" baseProfile="tiny" width="1066.5" height="580.5" viewBox="-0.75 -0.75 39.5 21.5" fill="none" stroke="#000000" stroke-linejoin="round" stroke-linecap="round" stroke-width="0.5">
    <title>24660. GPS,satnav</title>
    <desc>https://www.xelify.se/blissdictionary</desc>
    <rect x="-0.75" y="-0.75" width="100%" height="100%" stroke="none" fill="#f5eb82"/>
    <path d="M0,8H8M0,16H8M0,8V16M8,8V16M4,10V12M3,14a1,1 0 1,1 2,0a1,1 0 1,1 -2,0"></path><path d="M10,12H18M12,12a2,2 0 1,1 4,0a2,2 0 1,1 -4,0"></path><path d="M20,12a4,4 0 1,0 8,0M22,14L24,16M24,16L26,14M24,8V16M22,10L24,8M24,8L26,10"></path><path d="M30,16H38M32,14L34,16M34,16L36,14"></path>
</svg>