<?xml version="1.0" encoding="utf-8" standalone="yes"?>
<svg xmlns="http://www.w3.org/2000/svg" version="1.1" baseProfile="tiny" width="688.5" height="580.5" viewBox="-0.75 -0.75 25.5 21.5" fill="none" stroke="#000000" stroke-linejoin="round" stroke-linecap="round" stroke-width="0.5">
    <title>23565. lecture-(to)</title>
    <desc>https://www.xelify.se/blissdictionary</desc>
    <rect x="-0.75" y="-0.75" width="100%" height="100%" stroke="none" fill="#fbcac4"/>
    <path d="M0,12a2,2 0 1,1 4,0a2,2 0 1,1 -4,0"></path><path d="M1,6L2,4M2,4L3,6"></path><path d="M6,12a4,4 0 1,1 8,0M6,12V16M6,16H14M14,12V16"></path><path d="M16,8V16M16,12a4,4 0 1,1 8,0a4,4 0 1,1 -8,0M20,8V12M20,12H24M24,8V16"></path>
</svg>