<?xml version="1.0" encoding="utf-8" standalone="yes"?>
<svg xmlns="http://www.w3.org/2000/svg" version="1.1" baseProfile="tiny" width="796.5" height="580.5" viewBox="-0.75 -0.75 29.5 21.5" fill="none" stroke="#000000" stroke-linejoin="round" stroke-linecap="round" stroke-width="0.5">
    <title>23903. MP3_player,iPod_(etc)</title>
    <desc>https://www.xelify.se/blissdictionary</desc>
    <rect x="-0.75" y="-0.75" width="100%" height="100%" stroke="none" fill="#f5eb82"/>
    <path d="M0,12a4,4 0 1,1 8,0a4,4 0 1,1 -8,0M2,14a2,2 0 1,1 4,0a2,2 0 1,1 -4,0M2.585786,15.414214L5.414213999999999,12.585786M2.585786,12.585786L5.414213999999999,15.414214"></path><path d="M10,10a2,2 0 1,1 4,0q0,3 -4,6"></path><path d="M16,12a4,4 0 1,0 8,0M24,12H28M26,10L28,12M26,14L28,12"></path>
</svg>