<?xml version="1.0" encoding="utf-8" standalone="yes"?>
<svg xmlns="http://www.w3.org/2000/svg" version="1.1" baseProfile="tiny" width="904.5" height="580.5" viewBox="-0.75 -0.75 33.5 21.5" fill="none" stroke="#000000" stroke-linejoin="round" stroke-linecap="round" stroke-width="0.5">
    <title>24492. Neptune_(planet)</title>
    <desc>https://www.xelify.se/blissdictionary</desc>
    <rect x="-0.75" y="-0.75" width="100%" height="100%" stroke="none" fill="#f5eb82"/>
    <path d="M0,12H12M2,12a4,4 0 1,1 8,0a4,4 0 1,1 -8,0"></path><path d="M14,10L16,8M16,8L18,10M16,8V16M14,12a2,2 0 1,1 4,0a2,2 0 1,1 -4,0"></path><path d="M20,8H28M24,16L28,8M24,16H28M24,12H32M30,10L32,12M30,14L32,12"></path>
</svg>