<?xml version="1.0" encoding="utf-8" standalone="yes"?>
<svg xmlns="http://www.w3.org/2000/svg" version="1.1" baseProfile="tiny" width="904.5" height="580.5" viewBox="-0.75 -0.75 33.5 21.5" fill="none" stroke="#000000" stroke-linejoin="round" stroke-linecap="round" stroke-width="0.5">
    <title>22825. Saehrimnir</title>
    <desc>https://www.xelify.se/blissdictionary</desc>
    <rect x="-0.75" y="-0.75" width="100%" height="100%" stroke="none" fill="#f5eb82"/>
    <path d="M0,8a2,2 0 1,0 4,0M4,8a2,2 0 1,0 0,4M4,12H12M4,16L6,12M6,12L8,16M8,16L10,12M10,12L12,16"></path><path d="M14,12L18,4M18,4L22,12M14,12H16M20,12H22M14,16L18,8M18,8L22,16M14,16H22"></path><path d="M24,12a4,4 0 1,1 8,0a4,4 0 1,1 -8,0M26,11L28,9M28,9L30,11"></path>
</svg>