<?xml version="1.0" encoding="utf-8" standalone="yes"?>
<svg xmlns="http://www.w3.org/2000/svg" version="1.1" baseProfile="tiny" width="715.5" height="580.5" viewBox="-0.75 -0.75 26.5 21.5" fill="none" stroke="#000000" stroke-linejoin="round" stroke-linecap="round" stroke-width="0.5">
    <title>23647. Santa_Claus,Father_Christmas</title>
    <desc>https://www.xelify.se/blissdictionary</desc>
    <rect x="-0.75" y="-0.75" width="100%" height="100%" stroke="none" fill="#cee9f6"/>
    <path d="M2,8V12M0,16L2,12M2,12L4,16"></path><path d="M6,12a4,4 0 1,1 8,0a4,4 0 1,1 -8,0M10,10V14M8,14H12"></path><path stroke-width="0.4166" d="M7.7917,10a0.2083,0.2083 0 1,1 0.4166,0a0.2083,0.2083 0 1,1 -0.4166,0"></path><path d=""></path><path stroke-width="0.4166" d="M11.7917,10a0.2083,0.2083 0 1,1 0.4166,0a0.2083,0.2083 0 1,1 -0.4166,0"></path><path d="M8,16a1.25,1.25 0 0,0 0,2M10,16a1.25,1.25 0 0,0 0,2M12,16a1.25,1.25 0 0,0 0,2M13,18L15,16M13,18L15,20"></path><path d="M17,12a4,4 0 0,0 4,-4M21,8V16M21,8a4,4 0 0,0 4,4M17,14a4,4 0 0,0 4,-4M21,10a4,4 0 0,0 4,4"></path>
</svg>