<?xml version="1.0" encoding="utf-8" standalone="yes"?>
<svg xmlns="http://www.w3.org/2000/svg" version="1.1" baseProfile="tiny" width="823.5" height="580.5" viewBox="-0.75 -0.75 30.5 21.5" fill="none" stroke="#000000" stroke-linejoin="round" stroke-linecap="round" stroke-width="0.5">
    <title>24512. smoking_addiction_(2)</title>
    <desc>https://www.xelify.se/blissdictionary</desc>
    <rect x="-0.75" y="-0.75" width="100%" height="100%" stroke="none" fill="#f5eb82"/>
    <path d="M0,16L4,12M4,12L8,16M8,12V16"></path><path d="M10,16H14M12,16L16,8"></path><path d="M18,14a2,2 0 1,1 4,0a2,2 0 1,1 -4,0M20,16H28M28,8a2.5,2.5 0 0,1 0,4M28,12a2.5,2.5 0 0,0 0,4"></path>
</svg>